<svg xmlns="http://www.w3.org/2000/svg" viewBox="0 0 128 128">
    <defs>
        <style>.cls-1{isolation:isolate;}.cls-2{mix-blend-mode:multiply;}.Graphic-Style-2,.cls-3{fill:#302a27;}.cls-4{fill:#c49b83;}.cls-5{fill:#fccc33;}.cls-6{opacity:0.12;}.Graphic-Style-2,.cls-7,.cls-8{stroke:#302a27;stroke-linecap:round;stroke-linejoin:round;stroke-width:2px;}.cls-7,.cls-8{fill:none;}.cls-8{opacity:0.24;}</style>
    </defs>
    <title>banana</title>
    <g class="cls-1">
        <g id="icons" class="cls-2">
            <path class="cls-3" d="M55.28,115c-16.986,0-27.016-8.155-31.483-13.017a6.647,6.647,0,0,1-1.53-2.724A6.733,6.733,0,0,1,22,97.36a6.828,6.828,0,0,1,.706-3.044,6.679,6.679,0,0,1,5.972-3.771,6.58,6.58,0,0,1,1.008.077,48.024,48.024,0,0,0,7.414.6c9.636,0,19.041-3.229,28.751-9.87C83.793,69.066,84,41.181,84,40c0-3.587,1.366-5.774,2.741-6.941L82.615,18.371a3,3,0,0,1,.3-2.341,3.042,3.042,0,0,1,1.937-1.41l7.054-1.554A3.044,3.044,0,0,1,92.56,13a3,3,0,0,1,3,2.719l1.692,15.84a7.869,7.869,0,0,1,2.265,1.758C103.572,37.615,106,46.85,106,58,106,92.1,79.774,115,55.28,115Z"/>
            <path class="cls-3" d="M92.56,15a1.014,1.014,0,0,1,1.01.914L95.4,33.04a4.71,4.71,0,0,1,2.65,1.63C101.14,37.95,104,46.01,104,58c0,34-26.31,55-48.72,55-16.42,0-26.05-8.06-30.01-12.37a4.656,4.656,0,0,1-1.08-1.92A4.734,4.734,0,0,1,24,97.36a4.848,4.848,0,0,1,.5-2.16,4.644,4.644,0,0,1,4.178-2.654,4.588,4.588,0,0,1,.7.054,50.26,50.26,0,0,0,7.719.619C45.327,93.219,55.286,91,66.98,83,84.51,71,86,45,86,40s3-6,3-6l.08-.01L84.54,17.83a1.011,1.011,0,0,1,.76-1.26l7.04-1.55A1.026,1.026,0,0,1,92.56,15m0-4a5.039,5.039,0,0,0-1.081.118l-7.039,1.55a5.011,5.011,0,0,0-3.746,6.265L84.5,32.49A11.17,11.17,0,0,0,82,40a67.573,67.573,0,0,1-2.77,17.735C76.25,67.759,71.369,75.148,64.72,79.7c-9.366,6.406-18.4,9.52-27.621,9.52a46.088,46.088,0,0,1-7.108-.572,8.611,8.611,0,0,0-9.1,4.818,8.905,8.905,0,0,0-.542,6.378,8.643,8.643,0,0,0,1.988,3.512C27.039,108.46,37.551,117,55.28,117,80.74,117,108,93.292,108,58c0-11.648-2.631-21.395-7.039-26.073a10.6,10.6,0,0,0-1.827-1.589L97.547,15.485A4.988,4.988,0,0,0,92.56,11Z"/>
            <g id="_Group_" data-name="&lt;Group&gt;">
                <path class="cls-4" d="M93.57,15.91,95.4,33.04A1.81,1.81,0,0,0,95,33l-5.92.99L84.54,17.83a1.011,1.011,0,0,1,.76-1.26l7.04-1.55A1.015,1.015,0,0,1,93.57,15.91Z"/>
                <path class="cls-5" d="M98.05,34.67C101.14,37.95,104,46.01,104,58c0,34-26.31,55-48.72,55-16.42,0-26.05-8.06-30.01-12.37a4.655,4.655,0,0,1-1.08-1.92A4.735,4.735,0,0,1,24,97.36a4.848,4.848,0,0,1,.5-2.16,4.632,4.632,0,0,1,4.88-2.6c9.44,1.46,21.97,1.09,37.6-9.6C84.51,71,86,45,86,40s3-6,3-6l.08-.01L95,33a1.81,1.81,0,0,1,.4.04A4.711,4.711,0,0,1,98.05,34.67Z"/>
                <g class="cls-6">
                    <path class="Graphic-Style-2" d="M104,58c0,34-26.31,55-48.72,55-16.42,0-26.05-8.06-30.01-12.37a4.656,4.656,0,0,1-1.08-1.92,21.773,21.773,0,0,1,5.45.99c4.35,1.38,8.28,3.87,12.63,5.29a39.071,39.071,0,0,0,11.59,1.68c6.29.09,12.92-.79,17.95-4.57,2.24-1.67,4.05-3.84,6.2-5.62,1.73-1.44,3.68-2.61,5.36-4.11,3.21-2.86,5.29-6.74,7.31-10.54q2.49-4.665,4.98-9.35c2.05-3.86,4.14-7.81,4.89-12.12a27.7,27.7,0,0,0-.77-11.76c-.89-3.42-2.23-6.78-2.28-10.32a10.882,10.882,0,0,1,.55-3.61C101.14,37.95,104,46.01,104,58Z"/>
                    <path class="Graphic-Style-2" d="M95.4,33.04A1.809,1.809,0,0,0,95,33l-1.5.25a11.12,11.12,0,0,1-1.72-5.3c-.04-1.34.19-2.69.04-4.02-.18-1.5-.84-2.91-1.06-4.41a7.527,7.527,0,0,1,.69-4.3l.89-.2a1.015,1.015,0,0,1,1.23.89Z"/>
                </g>
                <path class="cls-7" d="M95.4,33.04a4.711,4.711,0,0,1,2.65,1.63C101.14,37.95,104,46.01,104,58c0,34-26.31,55-48.72,55-16.42,0-26.05-8.06-30.01-12.37a4.655,4.655,0,0,1-1.08-1.92A4.735,4.735,0,0,1,24,97.36a4.848,4.848,0,0,1,.5-2.16,4.632,4.632,0,0,1,4.88-2.6c9.44,1.46,21.97,1.09,37.6-9.6C84.51,71,86,45,86,40s3-6,3-6l.08-.01L95,33A1.81,1.81,0,0,1,95.4,33.04Z"/>
                <path class="cls-7" d="M95.4,33.04,93.57,15.91a1.015,1.015,0,0,0-1.23-.89L85.3,16.57a1.011,1.011,0,0,0-.76,1.26l4.54,16.16"/>
            </g>
            <path class="cls-8" d="M88,65a39.424,39.424,0,0,1-4.87,10.81"/>
            <path class="cls-8" d="M53,97s14.93-3.73,25.71-15.48"/>
        </g>
    </g>
</svg>